<svg xmlns="http://www.w3.org/2000/svg" xmlns:xlink="http://www.w3.org/1999/xlink" preserveAspectRatio="xMidYMid meet" version="1.0" viewBox="-0.0 0.0 62.5 69.2" zoomAndPan="magnify" style="fill: rgb(203, 108, 230);" original_string_length="4282"><g data-name="28" id="__id128_s59wb45esg"><path d="M17.839,19.716a2.858,2.858,0,0,1,.266-3.692l0,0a2.928,2.928,0,0,1,2.209-1.007,2.681,2.681,0,0,1,1.3.329,29.2,29.2,0,0,1,2.529,1.646q.424.3.854.593l-3.343,4.985c-.37-.252-.75-.484-1.121-.711A9.251,9.251,0,0,1,17.839,19.716Zm-4.654,8.391c2.165,1.5,3.925,2.7,5.538,3.76.7.471,1.4.928,2.1,1.375.173.12.337.226.5.329l.187.121A2.577,2.577,0,0,0,23.55,34a3.081,3.081,0,0,0,1.684-1.121,7.754,7.754,0,0,1-3.225-1.464A4.889,4.889,0,0,1,20.378,29a8.458,8.458,0,0,1-.3-3.234.5.5,0,0,0-.1-.277l-.363-.252c-1.031-.719-2.1-1.462-3.2-2.1a2.608,2.608,0,0,0-1.31-.348,3.027,3.027,0,0,0-2.522,1.436A2.892,2.892,0,0,0,13.185,28.107ZM42.666,3.866q.4.408.828.775c.072.061.145.121.219.181l.088.071c.086.067.059.047-.079-.061.063.115.306.223.415.3a11.215,11.215,0,0,0,.965.6c.165.092.333.179.5.262.1.047.36.235.463.214-.167-.069-.2-.083-.1-.041l.158.063c.071.028.142.054.212.08q.267.1.537.182l.05.013q.2-1.58.388-3.152L47.726,0,45.331,1.351q-1.644.926-3.283,1.854c.08.09.175.177.234.244Q42.47,3.664,42.666,3.866Zm-3.7,13.055q.548.369,1.1.735c2.382-3.569,4.381-6.558,5.627-8.416a13.137,13.137,0,0,1-5.7-3.908c-1.4,2.088-3.525,5.261-6.068,9.045a10.312,10.312,0,0,1,3.575,1.56C37.984,16.262,38.473,16.592,38.963,16.921ZM8.354,36.194c1.713,1.177,3.425,2.329,5.16,3.471.46.311.916.61,1.372.91l1.016.671a3.236,3.236,0,0,0,2.44.508,2.944,2.944,0,0,0,1.879-1.277,3.065,3.065,0,0,0-1.007-4.29l-.253-.173c-.677-.465-1.38-.934-2.074-1.392L14.43,32.979c-.894-.6-1.783-1.207-2.684-1.8a3.479,3.479,0,0,0-1.9-.6,2.887,2.887,0,0,0-2.427,1.337A3,3,0,0,0,8.354,36.194Zm53.87,13.071-.1-.073H61.86l-.006-.18-.06-.039-.036-.022v0l-.107-.074-3.436-2.3c-1.641-1.1-2.9-1.944-5.43-3.614a4.452,4.452,0,0,1-1.937-2.625c-.129-.471-.274-.936-.418-1.4-.1-.331-.206-.663-.3-.995l-.028-.088c-.487-1.592-2.737-8.961-3.181-10.461a4.083,4.083,0,0,0-1.7-2.281l-4.606-3.093c-.7-.471-1.4-.941-2.093-1.4-.876-.6-1.748-1.174-2.627-1.756l-.443-.294a6.044,6.044,0,0,0-3.806-1.037,5.78,5.78,0,0,0-4.392,2.693q-1.715,2.521-3.394,5.05a2.689,2.689,0,0,0,.12,3.427,3.1,3.1,0,0,0,.507.438,2.705,2.705,0,0,0,3.894-.855c.454-.656.9-1.319,1.34-1.983l.675-1.006a1.789,1.789,0,0,1,2.3-.914c.846.4,1.094,1.182.739,2.318.239.19.46.364.688.531l.3.241c.555.44,1.116.885,1.677,1.323l.376.3c1.244.968,1.356,1.647.495,3.022-.182.294-.372.589-.563.885a16.906,16.906,0,0,0-1.58,2.829,7.241,7.241,0,0,0,2.433,8.236l2.186,1.67a1.678,1.678,0,0,1,.537,2.441,1.589,1.589,0,0,1-1.09.7,1.789,1.789,0,0,1-1.4-.478c-.353-.3-.717-.588-1.081-.881a19.351,19.351,0,0,1-3.265-3.063,9.8,9.8,0,0,1-1.989-7.672L19.6,54.07c2.771,1.862,6.441,4.322,8.394,5.629l.167.118c.323.2.685.443,1.05.69.242.164.484.328.73.49a8.2,8.2,0,0,0,6.88,1.306,6.378,6.378,0,0,1,1.627-.22,6.122,6.122,0,0,1,3.592,1.239c2.265,1.6,3.219,2.224,4.662,3.173.68.446,1.466.963,2.546,1.684.046.035.179.126.471.321L62.48,49.431C62.378,49.361,62.293,49.305,62.224,49.265ZM31.952,29.757l-.321-.26c-.082.11-.162.221-.242.331a7.294,7.294,0,0,1-1.087,1.28,5.245,5.245,0,0,0-1.608,2.367,5.976,5.976,0,0,1-4.8,3.825,6.835,6.835,0,0,1-.925,5.032,6.7,6.7,0,0,1-4.278,2.773A6.573,6.573,0,0,1,16.2,51.767l.088.065-.562.377a1.988,1.988,0,0,1-.357.206l-.2.09a7.537,7.537,0,0,1-3.836.3,7.121,7.121,0,0,1-2.462-1.045c-1.392,2.082-2.494,3.729-3.2,4.776-.383.569-.766,1.139-1.123,1.664,1.909,1.3,3.8,2.6,5.7,3.9l5.533-8.227c.291-.433.583-.868.871-1.306.227-.33.449-.652.66-.975.754-1.122,2.733-4.076,5.336-7.961Zm-28.8,14.19h0Q5.7,45.679,8.273,47.389l.618.411c.5.334,1.005.669,1.514.992.1.076.163.117.23.161a3.312,3.312,0,0,0,2.523.574,2.911,2.911,0,0,0,1.853-1.274,3,3,0,0,0-.943-4.214l-.326-.225c-.679-.467-1.383-.937-2.076-1.4l-2.591-1.74c-.868-.587-1.734-1.172-2.615-1.742a3.365,3.365,0,0,0-1.83-.575,2.88,2.88,0,0,0-2.407,1.323,2.967,2.967,0,0,0-.492,2.23A3.225,3.225,0,0,0,3.153,43.947ZM2.606,61.073Q1.382,62.993.156,64.9A.886.886,0,0,0,.4,66.14q1.281.844,2.557,1.707L4.519,68.9a.926.926,0,0,0,.325.146.772.772,0,0,0,.891-.28c.772-1.094,1.538-2.2,2.3-3.314l.179-.255.167-.236L6.517,63.7C5.217,62.825,3.921,61.953,2.606,61.073Z" style="fill: inherit;"/></g></svg>