<svg xmlns="http://www.w3.org/2000/svg" xmlns:xlink="http://www.w3.org/1999/xlink" preserveAspectRatio="xMidYMid meet" version="1.0" viewBox="-0.2 -0.1 60.0 72.8" zoomAndPan="magnify" style="fill: rgb(203, 108, 230);" original_string_length="2769"><g data-name="24" id="__id132_s59wb45esg"><path d="M7.62,22.55a1.692,1.692,0,0,1-1,.84,1.54,1.54,0,0,1-.43.06,1.411,1.411,0,0,1-.72-.19c-1.71-.93-3.26-1.83-4.75-2.75a1.586,1.586,0,0,1-.59-.79.542.542,0,0,0-.06-.11L0,19.48v-.14a1.876,1.876,0,0,1,.89-1.62,1.5,1.5,0,0,1,1.49-.01c1.66.9,3.3,1.87,4.7,2.7A1.6,1.6,0,0,1,7.62,22.55ZM30.79,8.49h.04a1.588,1.588,0,0,0,1.13-.43,1.848,1.848,0,0,0,.52-1.33c.01-.58.01-1.16.01-1.74l-.01-1.13V3.48c0-.58.01-1.16,0-1.74a1.653,1.653,0,1,0-3.3.01c-.01,1.66-.02,3.31-.01,4.97A1.618,1.618,0,0,0,30.79,8.49ZM6.16,43.98,5.98,44a1.117,1.117,0,0,0-.46.13l-.82.47C3.35,45.37,2,46.14.67,46.94a1.562,1.562,0,0,0-.45,2.1,1.618,1.618,0,0,0,1.41.87,1.41,1.41,0,0,0,.69-.17c1.53-.84,3.1-1.74,4.81-2.77a1.5,1.5,0,0,0,.59-1.84A1.6,1.6,0,0,0,6.16,43.98Zm53.6-24.77a1.842,1.842,0,0,0-.98-1.48,1.8,1.8,0,0,0-1.71.07c-1.46.82-2.92,1.67-4.37,2.53a1.657,1.657,0,0,0-.65,2.26,1.62,1.62,0,0,0,1.42.85,1.723,1.723,0,0,0,.86-.24c1.45-.81,2.99-1.69,4.48-2.6a2.258,2.258,0,0,0,.67-.75c.06-.1.12-.19.18-.28l.13-.16ZM58.81,46.8q-2.175-1.26-4.36-2.51a1.849,1.849,0,0,0-1.44-.23,1.56,1.56,0,0,0-.96.77,1.7,1.7,0,0,0,.76,2.33q2.085,1.215,4.2,2.43a3.407,3.407,0,0,0,.58.24l.23.08h.11a1.644,1.644,0,0,0,1.65-1.23A1.6,1.6,0,0,0,58.81,46.8ZM37.34,64.15H31.43a1.319,1.319,0,0,0-1.32,1.32v5.96a1.319,1.319,0,0,0,1.32,1.32h5.91a1.317,1.317,0,0,0,1.31-1.32V65.47A1.317,1.317,0,0,0,37.34,64.15ZM47.18,38.1a13.7,13.7,0,0,1-3.13,4.82,18.989,18.989,0,0,0-5.44,10.09c-.43,2-.6,4.05-.88,6.08-.05.33-.05.65-.08,1H30.81c-.02-.41-.04-.82-.06-1.2,0-.03-.02-.06-.02-.09s.01-.05.01-.08c-.14-2.66-.24-4.65-.24-5.67a2.218,2.218,0,0,0-.36-1.31,2.4,2.4,0,0,0-1.31-.83,24.942,24.942,0,0,1-4.25-1.86c-1.49-.79-1.75-.83-3,.32-.59.54-1.2,1.05-1.74,1.51-.19.16-.38.32-.55.47l-2.37-2.07c.25-.3.5-.59.74-.87.63-.74,1.23-1.44,1.86-2.12a1.813,1.813,0,0,0,.2-2.22c-.65-1.45-1.27-3-1.89-4.74a1.717,1.717,0,0,0-1.65-1.35c-1.27-.08-2.34-.16-3.41-.3-.26-.03-.65-.31-.66-.43a17.551,17.551,0,0,1-.05-2.06c.01-.22.01-.44.01-.66l1.23-.12c1.01-.11,1.97-.2,2.92-.27a1.7,1.7,0,0,0,1.62-1.36c.62-1.74,1.22-3.26,1.85-4.64a1.832,1.832,0,0,0-.21-2.22c-.63-.72-1.24-1.47-1.82-2.19-.23-.27-.45-.54-.67-.8l2.2-2.21c.26.21.53.43.79.65.69.56,1.39,1.14,2.07,1.74a1.782,1.782,0,0,0,2.31.15,40.817,40.817,0,0,1,4.65-2.08,1.873,1.873,0,0,0,1.47-1.81c.04-.84.13-1.69.21-2.52l.09-.99.01-.01C41.74,16.14,51.49,27.59,47.18,38.1ZM30.71,44.59a1.841,1.841,0,0,1-.03-.33V27.59a1.657,1.657,0,0,1-.35-.13,8.788,8.788,0,0,0,.19,17.21c.04-.01.07-.04.11-.05A.689.689,0,0,0,30.71,44.59Z" style="fill: inherit;"/></g></svg>